# xmcd
#
# Track frame offsets: 
#        150
#        14253
#        25739
#        36536
#        50482
#        63768
#        75454
#        83539
#        95966
#        106826
#        117436
#        129860
#        145500
#        157584
#        173976
#        185580
#        197559
#        207912
#        218544
#        233590
#        244709
#        257586
#        271108
#        283611
#        296400
#
# Disc length: 4077 seconds
#
# Revision: 1
# Processed by: cddbd v1.5.2PL0 Copyright (c) Steve Scherf et al.
# Submitted via: ExactAudioCopyFreeDBPlugin 1.0
#
DISCID=490feb19
DTITLE=Various Artist - Meat and Gravy From Bea and Baby  (Disc1)
DYEAR=2002
DGENRE=Blues
TTITLE0=Homesick James - My Baby's Gone
TTITLE1=Eddie Boyd - Blue Monday Blues
TTITLE2=Little Mac - Times Are Getting Tougher
TTITLE3=Sunnyland Slim - Drinking and Clowning 
TTITLE4=Willie Williams - Wine Headed Woman
TTITLE5=Singin' Sam - My Story
TTITLE6=Jimmy Cotton - There Must Be A Panic On
TTITLE7=Eddie Boyd - The Blues Is Here To Stay
TTITLE8=L.C. McKinley - Sharpest Man In Town
TTITLE9=Little Mac - Don't Come Back
TTITLE10=Detroit Jr. - So Unhappy 
TTITLE11=Sunnyland Slim - I Done You Wrong
TTITLE12=Hound Dog Taylor - My Baby's Coming Home
TTITLE13=Andrew McMahon - Lost In The Jungle
TTITLE14=Arelean Brown - Hello Baby
TTITLE15=Eddie Boyd - Come Home
TTITLE16=Little Mac - Mother In Law
TTITLE17=Earl Hooker - Dynamite
TTITLE18=Homesick James - My Kind Of Woman
TTITLE19=Willie Hudson - Hudson's Jump
TTITLE20=Sunnyland Slim - Worried About My Baby
TTITLE21=Little Mac - I'm Tore Down
TTITLE22=Bobby Saxton - Trying To Make A Living
TTITLE23=Andrew McMahon - Special Agent
TTITLE24=Eddie Boyd - Thank You Baby
EXTD=
EXTT0=
EXTT1=
EXTT2=
EXTT3=
EXTT4=
EXTT5=
EXTT6=
EXTT7=
EXTT8=
EXTT9=
EXTT10=
EXTT11=
EXTT12=
EXTT13=
EXTT14=
EXTT15=
EXTT16=
EXTT17=
EXTT18=
EXTT19=
EXTT20=
EXTT21=
EXTT22=
EXTT23=
EXTT24=
PLAYORDER=
